<svg width="141" height="40" viewBox="0 0 141 40" fill="none" xmlns="http://www.w3.org/2000/svg">
<path d="M51.683 26.1415C49.955 26.1415 48.605 25.7215 47.633 24.8815C46.661 24.0295 46.145 22.8235 46.085 21.2635C46.073 20.9155 46.067 20.3635 46.067 19.6075C46.067 18.8515 46.073 18.2995 46.085 17.9515C46.145 16.4275 46.667 15.2515 47.651 14.4235C48.647 13.5955 49.991 13.1815 51.683 13.1815C52.823 13.1815 53.813 13.3675 54.653 13.7395C55.505 14.1115 56.153 14.5855 56.597 15.1615C57.053 15.7375 57.293 16.3315 57.317 16.9435C57.317 17.0515 57.275 17.1415 57.191 17.2135C57.119 17.2855 57.029 17.3215 56.921 17.3215H54.293C54.173 17.3215 54.077 17.3035 54.005 17.2675C53.933 17.2315 53.873 17.1655 53.825 17.0695C53.669 16.7215 53.423 16.4215 53.087 16.1695C52.751 15.9055 52.283 15.7735 51.683 15.7735C50.255 15.7735 49.505 16.5295 49.433 18.0415C49.421 18.3775 49.415 18.8995 49.415 19.6075C49.415 20.3035 49.421 20.8255 49.433 21.1735C49.505 22.7575 50.273 23.5495 51.737 23.5495C52.445 23.5495 53.009 23.3695 53.429 23.0095C53.861 22.6375 54.077 22.0735 54.077 21.3175V20.9755H52.385C52.253 20.9755 52.145 20.9335 52.061 20.8495C51.977 20.7535 51.935 20.6395 51.935 20.5075V19.1755C51.935 19.0435 51.977 18.9355 52.061 18.8515C52.145 18.7555 52.253 18.7075 52.385 18.7075H56.921C57.053 18.7075 57.161 18.7555 57.245 18.8515C57.329 18.9355 57.371 19.0435 57.371 19.1755V21.2275C57.371 22.2475 57.137 23.1295 56.669 23.8735C56.201 24.6055 55.535 25.1695 54.671 25.5655C53.819 25.9495 52.823 26.1415 51.683 26.1415ZM63.6661 26.1415C62.1781 26.1415 61.0321 25.7875 60.2281 25.0795C59.4241 24.3715 58.9861 23.3755 58.9141 22.0915C58.9021 21.9355 58.8961 21.6655 58.8961 21.2815C58.8961 20.8975 58.9021 20.6275 58.9141 20.4715C58.9861 19.1995 59.4361 18.2095 60.2641 17.5015C61.0921 16.7815 62.2261 16.4215 63.6661 16.4215C65.1181 16.4215 66.2581 16.7815 67.0861 17.5015C67.9141 18.2095 68.3641 19.1995 68.4361 20.4715C68.4481 20.6275 68.4541 20.8975 68.4541 21.2815C68.4541 21.6655 68.4481 21.9355 68.4361 22.0915C68.3641 23.3755 67.9261 24.3715 67.1221 25.0795C66.3181 25.7875 65.1661 26.1415 63.6661 26.1415ZM63.6661 23.9455C64.1941 23.9455 64.5841 23.7895 64.8361 23.4775C65.0881 23.1535 65.2321 22.6615 65.2681 22.0015C65.2801 21.8815 65.2861 21.6415 65.2861 21.2815C65.2861 20.9215 65.2801 20.6815 65.2681 20.5615C65.2321 19.9135 65.0821 19.4275 64.8181 19.1035C64.5661 18.7795 64.1821 18.6175 63.6661 18.6175C62.6701 18.6175 62.1421 19.2655 62.0821 20.5615L62.0641 21.2815L62.0821 22.0015C62.1061 22.6615 62.2441 23.1535 62.4961 23.4775C62.7601 23.7895 63.1501 23.9455 63.6661 23.9455Z" fill="black"/>
<path d="M75.606 26.1415C73.89 26.1415 72.546 25.7275 71.574 24.8995C70.614 24.0595 70.104 22.8475 70.044 21.2635C70.032 20.9395 70.026 20.4115 70.026 19.6795C70.026 18.9355 70.032 18.3955 70.044 18.0595C70.104 16.4995 70.626 15.2995 71.61 14.4595C72.594 13.6075 73.926 13.1815 75.606 13.1815C76.662 13.1815 77.61 13.3615 78.45 13.7215C79.29 14.0695 79.95 14.5735 80.43 15.2335C80.922 15.8815 81.174 16.6435 81.186 17.5195V17.5555C81.186 17.6515 81.144 17.7355 81.06 17.8075C80.988 17.8675 80.904 17.8975 80.808 17.8975H78.378C78.222 17.8975 78.102 17.8675 78.018 17.8075C77.934 17.7355 77.862 17.6095 77.802 17.4295C77.634 16.8175 77.37 16.3915 77.01 16.1515C76.65 15.8995 76.176 15.7735 75.588 15.7735C74.172 15.7735 73.44 16.5655 73.392 18.1495C73.38 18.4735 73.374 18.9715 73.374 19.6435C73.374 20.3155 73.38 20.8255 73.392 21.1735C73.44 22.7575 74.172 23.5495 75.588 23.5495C76.176 23.5495 76.656 23.4235 77.028 23.1715C77.4 22.9075 77.658 22.4815 77.802 21.8935C77.85 21.7135 77.916 21.5935 78 21.5335C78.084 21.4615 78.21 21.4255 78.378 21.4255H80.808C80.916 21.4255 81.006 21.4615 81.078 21.5335C81.162 21.6055 81.198 21.6955 81.186 21.8035C81.174 22.6795 80.922 23.4475 80.43 24.1075C79.95 24.7555 79.29 25.2595 78.45 25.6195C77.61 25.9675 76.662 26.1415 75.606 26.1415ZM87.3086 26.1415C85.8206 26.1415 84.6746 25.7875 83.8706 25.0795C83.0666 24.3715 82.6286 23.3755 82.5566 22.0915C82.5446 21.9355 82.5386 21.6655 82.5386 21.2815C82.5386 20.8975 82.5446 20.6275 82.5566 20.4715C82.6286 19.1995 83.0786 18.2095 83.9066 17.5015C84.7346 16.7815 85.8686 16.4215 87.3086 16.4215C88.7606 16.4215 89.9006 16.7815 90.7286 17.5015C91.5566 18.2095 92.0066 19.1995 92.0787 20.4715C92.0907 20.6275 92.0967 20.8975 92.0967 21.2815C92.0967 21.6655 92.0907 21.9355 92.0787 22.0915C92.0066 23.3755 91.5686 24.3715 90.7646 25.0795C89.9606 25.7875 88.8086 26.1415 87.3086 26.1415ZM87.3086 23.9455C87.8366 23.9455 88.2266 23.7895 88.4786 23.4775C88.7306 23.1535 88.8746 22.6615 88.9106 22.0015C88.9226 21.8815 88.9286 21.6415 88.9286 21.2815C88.9286 20.9215 88.9226 20.6815 88.9106 20.5615C88.8746 19.9135 88.7246 19.4275 88.4606 19.1035C88.2086 18.7795 87.8246 18.6175 87.3086 18.6175C86.3126 18.6175 85.7846 19.2655 85.7246 20.5615L85.7066 21.2815L85.7246 22.0015C85.7486 22.6615 85.8866 23.1535 86.1386 23.4775C86.4026 23.7895 86.7926 23.9455 87.3086 23.9455ZM94.3346 25.9615C94.2026 25.9615 94.0946 25.9195 94.0106 25.8355C93.9266 25.7515 93.8846 25.6435 93.8846 25.5115V17.0515C93.8846 16.9195 93.9266 16.8115 94.0106 16.7275C94.0946 16.6435 94.2026 16.6015 94.3346 16.6015H96.4046C96.5366 16.6015 96.6446 16.6495 96.7286 16.7455C96.8246 16.8295 96.8726 16.9315 96.8726 17.0515V17.7715C97.5326 16.9915 98.4206 16.6015 99.5366 16.6015H100.329C100.461 16.6015 100.569 16.6435 100.653 16.7275C100.737 16.8115 100.779 16.9195 100.779 17.0515V18.9055C100.779 19.0255 100.737 19.1335 100.653 19.2295C100.569 19.3135 100.461 19.3555 100.329 19.3555H98.5826C98.0906 19.3555 97.7066 19.4935 97.4306 19.7695C97.1666 20.0335 97.0346 20.4115 97.0346 20.9035V25.5115C97.0346 25.6435 96.9866 25.7515 96.8906 25.8355C96.8066 25.9195 96.6986 25.9615 96.5666 25.9615H94.3346ZM106.398 26.1415C104.91 26.1415 103.764 25.7875 102.96 25.0795C102.156 24.3715 101.718 23.3755 101.646 22.0915C101.634 21.9355 101.628 21.6655 101.628 21.2815C101.628 20.8975 101.634 20.6275 101.646 20.4715C101.718 19.1995 102.168 18.2095 102.996 17.5015C103.824 16.7815 104.958 16.4215 106.398 16.4215C107.85 16.4215 108.99 16.7815 109.818 17.5015C110.646 18.2095 111.096 19.1995 111.168 20.4715C111.18 20.6275 111.186 20.8975 111.186 21.2815C111.186 21.6655 111.18 21.9355 111.168 22.0915C111.096 23.3755 110.658 24.3715 109.854 25.0795C109.05 25.7875 107.898 26.1415 106.398 26.1415ZM106.398 23.9455C106.926 23.9455 107.316 23.7895 107.568 23.4775C107.82 23.1535 107.964 22.6615 108 22.0015C108.012 21.8815 108.018 21.6415 108.018 21.2815C108.018 20.9215 108.012 20.6815 108 20.5615C107.964 19.9135 107.814 19.4275 107.55 19.1035C107.298 18.7795 106.914 18.6175 106.398 18.6175C105.402 18.6175 104.874 19.2655 104.814 20.5615L104.796 21.2815L104.814 22.0015C104.838 22.6615 104.976 23.1535 105.228 23.4775C105.492 23.7895 105.882 23.9455 106.398 23.9455ZM113.424 25.9615C113.292 25.9615 113.184 25.9195 113.1 25.8355C113.016 25.7515 112.974 25.6435 112.974 25.5115V17.0515C112.974 16.9195 113.016 16.8115 113.1 16.7275C113.184 16.6435 113.292 16.6015 113.424 16.6015H115.494C115.626 16.6015 115.734 16.6435 115.818 16.7275C115.914 16.8115 115.962 16.9195 115.962 17.0515V17.7355C116.286 17.3395 116.7 17.0215 117.204 16.7815C117.72 16.5415 118.302 16.4215 118.95 16.4215C120.006 16.4215 120.864 16.7815 121.524 17.5015C122.184 18.2095 122.514 19.2055 122.514 20.4895V25.5115C122.514 25.6315 122.472 25.7395 122.388 25.8355C122.304 25.9195 122.196 25.9615 122.064 25.9615H119.796C119.676 25.9615 119.568 25.9195 119.472 25.8355C119.388 25.7395 119.346 25.6315 119.346 25.5115V20.5975C119.346 20.0335 119.208 19.6015 118.932 19.3015C118.656 18.9895 118.26 18.8335 117.744 18.8335C117.24 18.8335 116.844 18.9895 116.556 19.3015C116.268 19.6015 116.124 20.0335 116.124 20.5975V25.5115C116.124 25.6315 116.082 25.7395 115.998 25.8355C115.914 25.9195 115.806 25.9615 115.674 25.9615H113.424ZM127.349 26.1415C126.713 26.1415 126.131 26.0215 125.603 25.7815C125.087 25.5295 124.679 25.1935 124.379 24.7735C124.091 24.3415 123.947 23.8675 123.947 23.3515C123.947 22.5235 124.283 21.8575 124.955 21.3535C125.639 20.8495 126.575 20.5015 127.763 20.3095L130.013 19.9675V19.7155C130.013 19.2595 129.917 18.9235 129.725 18.7075C129.533 18.4915 129.209 18.3835 128.753 18.3835C128.477 18.3835 128.249 18.4315 128.069 18.5275C127.889 18.6235 127.703 18.7555 127.511 18.9235C127.343 19.0675 127.217 19.1635 127.133 19.2115C127.097 19.3075 127.031 19.3555 126.935 19.3555H124.973C124.853 19.3555 124.751 19.3195 124.667 19.2475C124.595 19.1635 124.565 19.0675 124.577 18.9595C124.589 18.6355 124.745 18.2755 125.045 17.8795C125.357 17.4835 125.825 17.1415 126.449 16.8535C127.085 16.5655 127.865 16.4215 128.789 16.4215C130.265 16.4215 131.357 16.7515 132.065 17.4115C132.773 18.0595 133.127 18.9355 133.127 20.0395V25.5115C133.127 25.6315 133.085 25.7395 133.001 25.8355C132.917 25.9195 132.809 25.9615 132.677 25.9615H130.589C130.469 25.9615 130.361 25.9195 130.265 25.8355C130.181 25.7395 130.139 25.6315 130.139 25.5115V24.8815C129.875 25.2535 129.503 25.5595 129.023 25.7995C128.555 26.0275 127.997 26.1415 127.349 26.1415ZM128.195 24.0895C128.747 24.0895 129.191 23.9095 129.527 23.5495C129.875 23.1895 130.049 22.6615 130.049 21.9655V21.7135L128.519 21.9835C127.439 22.1755 126.899 22.5535 126.899 23.1175C126.899 23.4175 127.025 23.6575 127.277 23.8375C127.529 24.0055 127.835 24.0895 128.195 24.0895Z" fill="#EC5863"/>
<path d="M14.2208 4.98869C15.6455 4.48917 17.2113 5.16285 17.7174 6.49273C18.1048 7.51091 17.7581 8.61769 16.9363 9.30529L17.3804 10.5163L18.0869 11.3316C18.2482 11.5182 18.4928 11.6074 18.738 11.5772C19.3991 11.4959 20.056 11.4928 20.6993 11.5604C20.9173 11.5836 21.1342 11.5116 21.2907 11.3595L21.8005 10.8661L22.1764 9.77185C21.8566 9.33293 21.7483 8.75165 21.9379 8.19933C22.2597 7.26306 23.3107 6.77916 24.2454 7.16256C25.0506 7.49245 25.4887 8.38808 25.253 9.22153C25.1032 9.75239 24.7242 10.15 24.2576 10.3468L23.8415 11.5594L23.9364 12.2276C23.969 12.4573 24.1054 12.6579 24.3047 12.7782C24.9746 13.1847 25.5899 13.6817 26.1301 14.2562C26.3116 14.4496 26.5824 14.5325 26.8427 14.4801L28.1825 14.2111L29.6961 13.3717C29.7039 12.6274 30.1017 11.9079 30.8019 11.5195C31.8606 10.9326 33.2014 11.327 33.7655 12.4024C34.2748 13.3725 33.9551 14.592 33.0327 15.1892C32.3124 15.6547 31.4335 15.6377 30.7551 15.2402L29.2325 16.084L28.3823 16.9871C28.1541 17.2294 28.0728 17.572 28.1599 17.8928C28.1604 17.8947 28.1607 17.896 28.1612 17.8979C28.3102 18.4507 28.4006 19.0063 28.438 19.557C28.4597 19.8851 28.6454 20.1803 28.9362 20.3371L30.0459 20.9353L32.2454 21.35C32.6331 21.0124 33.1672 20.8491 33.713 20.9515C34.6915 21.1363 35.3215 22.1048 35.0708 23.0797C34.8551 23.9145 34.0325 24.4703 33.1723 24.3609C32.5857 24.2863 32.1121 23.9338 31.8578 23.4598L29.6441 23.0427L28.2787 23.2089C28.027 23.24 27.8072 23.3975 27.7046 23.628C27.296 24.5379 26.7323 25.3748 26.0364 26.0973C25.8634 26.2768 25.7985 26.5338 25.8613 26.7744L26.2006 28.0843L27.0384 29.3942C27.9599 29.2563 28.9188 29.6536 29.4508 30.4856C30.1659 31.6034 29.8415 33.0834 28.7285 33.8046C27.6161 34.5257 26.1023 34.2119 25.3732 33.1081C24.8627 32.3353 24.8571 31.382 25.2709 30.6257L24.3815 29.2354L23.288 28.3384C23.1261 28.2048 22.9054 28.1695 22.7078 28.2397C22.4885 28.3178 22.2649 28.3876 22.0362 28.4485C20.7935 28.7796 19.5406 28.8223 18.3489 28.6198C18.1742 28.5905 17.9955 28.6402 17.8619 28.7557L17.2751 29.2642L16.8386 30.336C17.1339 30.7923 17.2093 31.3783 16.9894 31.919C16.6156 32.8366 15.5392 33.2616 14.6276 32.8274C13.8425 32.4535 13.4548 31.535 13.7366 30.7157C13.916 30.1939 14.3158 29.8178 14.7928 29.6473L15.2763 28.4594L15.1865 27.4161C14.3146 26.8717 13.5388 26.1731 12.9044 25.3474L11.4132 25.4942L10.0175 26.1823C10.0266 27.1158 9.54482 28.0039 8.69918 28.4338C7.50426 29.0407 6.03648 28.5034 5.42117 27.2331C4.80604 25.9634 5.27521 24.4421 6.47012 23.8352C7.36433 23.3809 8.41073 23.5673 9.13879 24.2224L10.455 23.573L11.3685 22.5962C11.4282 22.5323 11.4503 22.4424 11.4276 22.3584L11.4273 22.3571C11.0051 20.7902 11.0482 19.2063 11.4718 17.7506C11.4945 17.6707 11.4774 17.5846 11.4235 17.521L10.6355 16.5826L8.93758 15.6942C8.46992 15.8994 7.9155 15.8988 7.42793 15.6434C6.54711 15.182 6.22972 14.0748 6.75476 13.2157C7.2157 12.4624 8.19747 12.1764 8.99469 12.5626C9.51073 12.8124 9.84362 13.2797 9.94203 13.7966L11.6399 14.6849L12.8484 14.7983C12.9323 14.8064 13.0141 14.7711 13.0674 14.7061C13.6155 14.0312 14.268 13.4354 15.0092 12.9467C15.2126 12.8119 15.339 12.5886 15.3422 12.3453L15.3547 11.2518L14.881 9.96133C13.8541 9.88759 12.9251 9.26768 12.557 8.30058C12.0509 6.97071 12.7959 5.48757 14.2208 4.98869Z" fill="#EC5863"/>
<path d="M25.9898 18.4765C25.0729 15.0737 21.5559 13.0542 18.1342 13.966C14.7125 14.8778 12.6819 18.3756 13.5988 21.7785C14.5156 25.1813 18.0327 27.2008 21.4543 26.289C24.876 25.3772 26.9066 21.8794 25.9898 18.4765Z" fill="#F58A97"/>
<path d="M20.9484 24.4109C17.8476 25.2372 14.6687 23.6565 13.4173 20.8204C13.4527 21.1391 13.5128 21.4592 13.5988 21.7785C14.5156 25.1814 18.0326 27.2008 21.4543 26.289C24.8761 25.3771 26.9066 21.8795 25.9898 18.4765C25.9037 18.1573 25.7949 17.8502 25.6653 17.5566C26.0073 20.635 24.049 23.5847 20.9484 24.4109Z" fill="#F07281"/>
<path d="M11.324 33.496C11.0629 32.5269 10.0614 31.9518 9.08698 32.2115C8.11258 32.4711 7.53433 33.4672 7.79542 34.4362C8.05651 35.4053 9.05807 35.9804 10.0325 35.7207C11.0069 35.4611 11.5851 34.465 11.324 33.496Z" fill="#EB5569"/>
<path d="M34.1106 27.9379C33.9381 27.2979 33.2766 26.918 32.633 27.0895C31.9894 27.261 31.6074 27.9189 31.7799 28.559C31.9523 29.1991 32.6139 29.5789 33.2575 29.4074C33.9011 29.2359 34.283 28.578 34.1106 27.9379Z" fill="#EB5569"/>
<path d="M30.8429 6.00213C30.5889 5.05936 29.6145 4.49988 28.6665 4.75249C27.7185 5.0051 27.1559 5.97416 27.4099 6.91693C27.6639 7.8597 28.6383 8.41918 29.5863 8.16656C30.5343 7.91395 31.0969 6.9449 30.8429 6.00213Z" fill="#EB5569"/>
<path d="M20.1955 22.0477C19.9587 21.1687 19.0502 20.6471 18.1664 20.8826C17.2826 21.1181 16.7581 22.0216 16.9949 22.9005C17.2318 23.7795 18.1402 24.3011 19.024 24.0656C19.9078 23.8301 20.4323 22.9266 20.1955 22.0477Z" fill="#EB5569"/>
<path d="M24.3108 19.5818C24.1496 18.9835 23.5313 18.6285 22.9297 18.7888C22.3281 18.9491 21.9711 19.564 22.1323 20.1623C22.2935 20.7606 22.9119 21.1156 23.5134 20.9553C24.115 20.795 24.472 20.18 24.3108 19.5818Z" fill="#EB5569"/>
<path d="M19.9578 17.0961C19.8224 16.5937 19.3032 16.2956 18.7981 16.4302C18.2929 16.5648 17.9931 17.0812 18.1285 17.5835C18.2639 18.0859 18.7831 18.384 19.2882 18.2494C19.7934 18.1148 20.0932 17.5984 19.9578 17.0961Z" fill="#EB5569"/>
</svg>
